<?xml version="1.0" standalone="no"?>
<!DOCTYPE svg PUBLIC "-//W3C//DTD SVG 20010904//EN"
 "http://www.w3.org/TR/2001/REC-SVG-20010904/DTD/svg10.dtd">
<svg version="1.0" xmlns="http://www.w3.org/2000/svg"
 width="1080.000000pt" height="1080.000000pt" viewBox="0 0 1080.000000 1080.000000"
 preserveAspectRatio="xMidYMid meet">
<metadata>
Created by potrace 1.16, written by Peter Selinger 2001-2019
</metadata>
<g transform="translate(0.000000,1080.000000) scale(0.100000,-0.100000)"
fill="#000000" stroke="none">
<path d="M0 5400 l0 -5400 5400 0 5400 0 0 5400 0 5400 -5400 0 -5400 0 0
-5400z m9285 4450 c3 -5 1 -10 -5 -10 -6 0 -14 -8 -17 -17 -4 -10 -20 -31 -35
-48 -15 -16 -28 -34 -28 -38 0 -4 -10 -18 -22 -31 -13 -13 -30 -33 -38 -45
-28 -42 -45 -63 -62 -79 -10 -9 -18 -22 -18 -29 0 -7 -8 -22 -17 -32 -63 -68
-80 -88 -86 -104 -3 -9 -11 -17 -17 -17 -5 0 -10 -6 -10 -13 0 -7 -13 -27 -30
-45 -16 -18 -30 -37 -30 -41 0 -9 -28 -46 -61 -80 -14 -14 -28 -34 -32 -43 -6
-17 -176 -18 -3377 -18 -3201 0 -3371 1 -3377 18 -4 9 -18 29 -32 44 -41 42
-50 55 -44 62 4 3 1 6 -5 6 -7 0 -12 4 -12 10 0 5 -13 23 -30 40 -16 17 -30
37 -30 45 0 8 -5 15 -10 15 -6 0 -14 8 -17 17 -6 16 -23 36 -85 104 -10 10
-18 25 -18 32 0 7 -8 20 -17 28 -10 9 -25 26 -33 38 -26 38 -44 62 -67 86 -13
13 -23 29 -23 35 0 5 -3 10 -7 10 -5 0 -21 21 -38 45 -16 25 -34 45 -38 45 -5
0 -5 5 -2 10 4 7 1310 10 3885 10 2575 0 3881 -3 3885 -10z m-2135 -1580 l0
-590 -940 0 -940 0 0 -920 0 -920 140 0 140 0 0 795 0 795 260 0 260 0 0
-1030 0 -1030 -665 0 -665 0 0 1155 0 1155 -540 0 -540 0 0 590 0 590 1745 0
1745 0 0 -590z m1014 -3165 c59 -16 156 -64 156 -77 0 -12 -71 -108 -80 -108
-4 0 -28 12 -53 26 -100 55 -207 40 -207 -29 0 -41 25 -57 138 -87 152 -41
216 -104 216 -214 -1 -59 -11 -88 -51 -144 l-17 -24 40 2 c66 3 74 1 74 -20 0
-20 -7 -20 -403 -20 -398 0 -402 0 -415 21 -33 52 -177 239 -184 239 -5 0 -22
-15 -38 -32 -28 -32 -29 -37 -30 -130 l0 -98 -203 0 -203 0 -30 73 -29 72
-145 3 -145 2 -30 -72 -31 -73 -202 -3 -202 -2 0 207 -1 208 -92 -179 -92
-180 -45 0 -45 1 -92 184 -92 184 0 -212 -1 -213 -652 0 -653 0 -31 73 -31 72
-144 3 -144 3 -30 -76 -30 -75 -195 0 -195 1 -74 109 -75 110 -53 0 -53 0 0
-110 0 -110 -420 0 -420 0 0 23 c0 21 3 22 107 22 l108 0 3 258 2 257 -95 0
-95 0 0 68 0 67 275 -3 275 -3 0 -64 0 -64 -97 -3 -98 -3 0 -254 0 -254 145 0
145 -1 3 323 2 323 208 -4 c206 -3 207 -3 258 -31 74 -42 99 -89 98 -192 0
-109 -28 -162 -109 -210 -16 -10 -10 -21 51 -108 68 -95 70 -96 110 -97 40 0
42 1 62 53 11 28 72 171 136 317 l115 265 79 3 79 3 23 -53 c12 -29 74 -173
137 -319 l115 -267 110 -7 c60 -4 112 -4 115 -1 3 3 -49 142 -115 308 -67 167
-124 311 -128 321 -6 15 2 17 79 17 l85 0 83 -210 c46 -115 86 -210 90 -210 3
0 43 94 88 209 l84 210 83 3 c46 2 84 -1 84 -5 0 -5 -56 -149 -125 -321 -69
-172 -125 -315 -125 -319 0 -9 274 -9 453 0 l137 6 0 318 c0 284 2 318 16 321
9 2 58 2 109 0 l93 -3 83 -180 c46 -98 86 -179 90 -179 4 0 14 15 22 33 9 17
47 98 86 180 l70 147 105 0 106 0 0 -320 0 -320 49 0 48 0 21 53 c11 28 72
171 136 317 l115 265 79 3 79 3 108 -253 c60 -139 123 -285 140 -323 l32 -70
46 3 47 4 0 319 0 319 80 0 79 0 3 -137 3 -137 125 137 c69 75 129 138 135
139 5 2 49 1 97 -2 l86 -5 -134 -149 c-75 -83 -131 -154 -127 -160 27 -44 229
-319 237 -321 22 -7 126 -11 126 -6 0 3 -16 16 -35 29 -19 12 -35 27 -35 33 0
6 19 35 42 65 40 50 44 53 63 39 143 -105 275 -112 275 -15 0 36 -22 50 -145
88 -154 48 -195 83 -209 177 -27 174 141 284 348 230z m-5164 -857 c0 -5 10
-13 23 -18 12 -5 16 -9 8 -9 -12 -1 -11 -4 2 -13 26 -20 30 -85 7 -108 -13
-13 -15 -20 -7 -24 7 -2 -12 -5 -40 -5 -41 -1 -58 4 -74 20 -26 26 -35 85 -20
130 10 32 14 34 56 35 25 0 45 -4 45 -8z m2450 -7 c7 -11 17 -18 22 -15 26 16
21 -115 -6 -141 -20 -20 -107 -26 -113 -7 -3 6 -10 12 -18 12 -7 0 -15 18 -19
41 -5 31 -1 51 16 85 20 41 24 44 63 44 29 0 45 -6 55 -19z m2424 4 c3 -8 10
-15 16 -15 6 0 19 -7 27 -16 12 -12 13 -18 4 -23 -7 -4 -10 -19 -7 -33 3 -18
-4 -34 -25 -57 -35 -39 -85 -45 -119 -13 -19 18 -22 28 -17 68 2 25 11 50 18
55 12 7 11 9 -1 9 -28 1 12 20 43 20 15 0 27 5 27 10 0 16 27 12 34 -5z m-324
-1133 c0 -5 118 -12 263 -16 157 -4 263 -10 265 -16 2 -6 33 -10 68 -10 35 0
64 -4 64 -9 0 -4 39 -11 87 -15 48 -3 90 -10 93 -15 3 -5 24 -12 47 -16 23 -3
47 -13 54 -21 6 -8 18 -14 25 -14 8 0 14 -4 14 -9 0 -5 14 -12 30 -16 17 -4
30 -11 30 -16 0 -5 11 -11 25 -15 14 -3 25 -10 25 -14 0 -5 13 -11 28 -15 15
-3 34 -15 42 -25 8 -11 22 -20 31 -20 9 0 22 -6 28 -14 7 -8 26 -18 42 -21 16
-4 29 -11 29 -16 0 -5 11 -11 25 -15 14 -3 25 -10 25 -14 0 -5 14 -11 30 -15
17 -4 30 -10 30 -15 0 -4 12 -11 27 -15 15 -3 34 -14 42 -23 9 -9 37 -28 64
-42 26 -13 47 -28 47 -32 0 -4 16 -10 35 -14 19 -3 35 -10 35 -15 0 -5 6 -9
14 -9 7 0 25 -9 38 -20 14 -10 28 -17 31 -13 4 3 9 -2 13 -11 3 -9 12 -16 20
-16 8 0 14 -4 14 -10 0 -5 6 -10 14 -10 8 0 21 -6 28 -14 8 -7 25 -17 38 -21
46 -15 88 -59 83 -88 -6 -30 -74 -75 -125 -83 -24 -4 -45 -11 -48 -15 -3 -4
-41 -11 -85 -14 -44 -4 -89 -11 -100 -15 -24 -11 -242 -28 -510 -39 -236 -10
-6139 -14 -6457 -4 -120 3 -215 9 -213 13 2 4 -64 10 -147 13 -84 4 -154 11
-157 15 -3 5 -42 12 -85 16 -44 3 -82 10 -85 15 -3 4 -26 11 -51 15 -24 4 -52
14 -62 23 -10 9 -18 13 -18 9 0 -12 -36 28 -44 48 -8 22 18 66 39 66 8 0 15 4
15 9 0 5 11 12 25 15 14 4 25 10 25 15 0 5 13 12 30 16 17 4 30 11 30 16 0 5
7 9 15 9 8 0 15 4 15 9 0 5 12 14 28 20 29 11 64 32 72 42 3 4 20 10 38 14 17
3 32 10 32 15 0 5 21 19 48 32 26 13 49 26 50 31 2 4 8 7 13 7 5 0 37 17 72
38 34 20 85 48 112 62 28 14 52 27 55 30 3 3 22 14 43 24 20 11 37 23 37 27 0
4 14 10 30 14 17 4 30 10 30 15 0 5 14 11 30 15 17 4 30 11 30 16 0 5 11 11
25 15 14 3 25 10 25 15 0 5 6 9 14 9 7 0 19 7 26 15 6 7 33 17 58 21 26 4 50
11 53 16 3 4 42 11 87 15 45 3 82 10 82 14 0 5 29 9 64 9 35 0 66 4 68 10 2 5
110 12 255 16 139 4 250 11 247 16 -3 4 969 8 2160 8 1191 0 2166 -4 2166 -8z
m-6417 -1382 c9 0 17 -4 17 -9 0 -5 18 -11 40 -15 22 -3 40 -10 40 -15 0 -5
36 -12 80 -16 44 -4 82 -11 85 -15 3 -5 50 -12 105 -15 55 -4 100 -11 100 -16
0 -5 31 -9 69 -9 47 0 71 -4 73 -12 7 -19 7271 -19 7289 0 8 7 41 12 85 12 40
0 75 4 78 9 3 4 51 12 106 15 55 4 102 11 105 16 2 4 39 11 80 15 41 4 75 10
75 15 0 5 18 11 40 15 37 6 77 21 122 46 27 14 28 12 28 -36 0 -28 -6 -49 -15
-57 -9 -7 -24 -20 -33 -29 -24 -23 -57 -39 -81 -39 -12 0 -21 -4 -21 -9 0 -5
-24 -12 -52 -16 -29 -4 -56 -12 -59 -17 -3 -5 -38 -12 -77 -15 -40 -3 -72 -9
-72 -14 0 -4 -44 -10 -97 -14 -54 -3 -107 -10 -118 -15 -62 -29 -464 -32
-3718 -36 -1825 -2 -3316 0 -3313 4 3 5 -85 12 -196 16 -111 3 -204 10 -208
15 -3 5 -53 12 -112 16 -60 4 -108 10 -108 14 0 5 -35 11 -77 15 -42 3 -79 10
-82 14 -3 5 -26 12 -51 15 -25 3 -59 13 -75 21 -17 9 -40 16 -52 16 -13 0 -24
8 -28 20 -3 11 -13 20 -20 20 -20 0 -35 32 -35 73 0 43 6 48 38 31 15 -8 35
-14 45 -14z"/>
<path d="M1694 9795 c8 -9 23 -29 33 -45 9 -17 21 -30 25 -30 4 0 8 -6 8 -14
0 -12 12 -27 71 -92 10 -12 19 -27 19 -33 0 -6 4 -11 9 -11 5 0 13 -10 17 -22
3 -12 10 -26 15 -32 26 -31 46 -56 59 -76 8 -13 24 -32 35 -44 25 -27 65 -83
65 -91 0 -4 6 -12 13 -19 6 -8 19 -24 27 -36 8 -12 21 -29 28 -36 20 -21 6544
-21 6564 0 7 8 33 44 58 81 25 36 56 79 70 95 14 15 32 38 40 50 8 12 20 28
25 34 24 27 55 76 55 86 0 5 5 10 10 10 6 0 10 5 10 11 0 6 9 21 19 33 59 65
71 80 71 92 0 8 4 14 8 14 4 0 16 13 25 30 10 16 25 36 33 45 14 13 -359 15
-3706 15 -3347 0 -3720 -2 -3706 -15z"/>
<path d="M4182 8273 l3 -118 280 -2 280 -2 1 -28 c1 -15 2 -121 3 -235 l1
-208 130 0 130 0 2 235 3 235 805 3 805 2 3 118 3 117 -1226 0 -1226 0 3 -117z"/>
<path d="M3270 4870 l0 -100 94 0 c84 0 98 3 121 23 18 15 28 35 31 62 10 83
-35 113 -168 114 l-78 1 0 -100z"/>
<path d="M4080 4803 c-18 -43 -35 -84 -37 -90 -4 -10 15 -13 77 -13 45 0 80 3
78 8 -1 4 -19 44 -37 90 -19 45 -38 82 -42 82 -3 0 -21 -35 -39 -77z"/>
<path d="M6660 4803 c-18 -43 -35 -84 -37 -90 -4 -10 15 -13 77 -13 45 0 80 3
78 8 -1 4 -19 44 -37 90 -19 45 -38 82 -42 82 -3 0 -21 -35 -39 -77z"/>
<path d="M3120 3080 c0 -6 -50 -10 -130 -10 -71 0 -130 -4 -130 -9 0 -5 -63
-12 -140 -16 -77 -4 -140 -11 -140 -15 0 -4 -33 -10 -72 -13 -40 -4 -74 -11
-76 -17 -2 -5 -11 -10 -20 -10 -9 0 -28 -9 -42 -20 -14 -11 -33 -20 -42 -20
-10 0 -18 -4 -18 -10 0 -5 -11 -12 -25 -16 -14 -3 -25 -10 -25 -15 0 -5 -9 -9
-19 -9 -10 0 -21 -7 -25 -15 -3 -8 -12 -15 -21 -15 -8 0 -15 -4 -15 -10 0 -5
-11 -12 -25 -16 -14 -3 -25 -10 -25 -14 0 -5 -13 -11 -30 -15 -16 -4 -30 -11
-30 -16 0 -5 -11 -11 -25 -15 -14 -3 -25 -10 -25 -14 0 -4 -11 -11 -25 -14
-14 -4 -25 -10 -25 -15 0 -5 -13 -12 -30 -16 -16 -4 -30 -10 -30 -14 0 -4 -16
-16 -35 -27 -19 -10 -35 -22 -35 -26 0 -4 -16 -10 -35 -14 -19 -3 -35 -10 -35
-14 0 -5 -21 -19 -47 -32 -27 -13 -50 -26 -53 -29 -6 -8 -43 -20 -50 -16 -3 1
-17 -9 -31 -23 -14 -14 -43 -34 -65 -45 -21 -11 -41 -23 -44 -26 -3 -4 -15 -9
-27 -13 -13 -4 -23 -12 -23 -17 0 -5 -7 -9 -15 -9 -8 0 -15 -9 -15 -20 0 -11
7 -20 15 -20 8 0 15 -4 15 -10 0 -5 8 -10 18 -10 9 0 30 -7 46 -15 15 -8 39
-15 52 -15 12 0 25 -4 28 -9 4 -5 45 -12 94 -16 48 -4 89 -11 92 -16 3 -4 88
-11 188 -15 100 -4 182 -11 182 -16 0 -4 1465 -8 3255 -8 1790 0 3255 4 3255
8 0 5 88 12 196 15 109 4 202 11 208 16 6 5 48 12 94 16 45 4 85 11 88 16 3 5
18 9 35 9 16 0 29 4 29 9 0 5 16 12 36 16 20 3 45 12 55 18 23 14 25 47 4 47
-8 0 -15 5 -15 10 0 6 -6 10 -14 10 -8 0 -21 6 -28 14 -8 7 -24 17 -36 20 -12
4 -22 11 -22 16 0 5 -13 11 -30 15 -16 4 -30 11 -30 16 0 5 -7 9 -15 9 -8 0
-15 4 -15 9 0 5 -10 13 -22 17 -13 4 -25 9 -28 13 -3 3 -27 17 -55 31 -27 14
-56 31 -63 38 -7 6 -22 12 -33 12 -11 0 -18 4 -15 9 3 5 -5 12 -19 15 -14 4
-25 11 -25 16 0 6 -7 10 -15 10 -8 0 -15 5 -15 10 0 6 -6 10 -14 10 -8 0 -21
6 -28 14 -8 7 -24 17 -36 20 -12 4 -22 11 -22 16 0 5 -16 12 -35 16 -19 3 -33
9 -31 13 2 3 -20 17 -50 30 -30 14 -54 28 -54 33 0 4 -7 8 -15 8 -8 0 -15 5
-15 10 0 6 -6 10 -13 10 -8 0 -24 9 -37 20 -13 11 -29 20 -37 20 -7 0 -13 4
-13 9 0 5 -12 12 -26 15 -15 4 -33 14 -41 21 -8 8 -25 15 -38 15 -13 0 -25 5
-27 11 -2 6 -33 13 -68 16 -36 3 -69 9 -75 13 -5 5 -70 11 -142 15 -73 4 -133
11 -133 16 0 5 -65 9 -145 9 -90 0 -145 4 -145 10 0 7 -762 10 -2265 10 -1503
0 -2265 -3 -2265 -10z m298 -270 c16 -48 16 -47 42 23 16 44 44 35 61 -20 l15
-48 22 48 c12 27 28 47 36 47 20 0 20 -16 0 -71 -37 -101 -37 -99 2 -99 l34 0
0 85 0 85 65 0 c58 0 65 -2 65 -20 0 -17 -7 -20 -45 -20 -32 0 -45 -4 -45 -14
0 -10 13 -16 37 -18 27 -2 39 -8 41 -20 3 -15 -4 -18 -37 -18 -30 0 -41 -4
-41 -15 0 -11 12 -15 45 -15 33 0 45 -4 45 -15 0 -11 12 -15 50 -15 l50 0 0
86 0 85 28 -3 c21 -2 32 -13 47 -45 11 -23 22 -42 25 -43 3 0 13 21 24 46 16
39 22 45 45 42 25 -3 26 -5 29 -86 3 -102 15 -103 57 -4 51 120 64 121 115 3
46 -106 60 -106 60 4 0 78 2 85 20 85 16 0 20 -7 20 -37 l0 -38 36 38 c19 20
44 37 55 37 26 0 24 -9 -13 -47 l-32 -33 30 -42 c16 -24 38 -44 47 -46 15 -3
17 7 17 82 l0 86 65 0 c58 0 65 -2 65 -20 0 -17 -7 -20 -45 -20 -33 0 -45 -4
-45 -15 0 -11 11 -15 40 -15 33 0 40 -3 40 -20 0 -17 -7 -20 -40 -20 -29 0
-40 -4 -40 -15 0 -11 12 -15 45 -15 33 0 45 -4 45 -15 0 -12 14 -15 70 -15 70
0 70 0 70 28 0 15 -14 50 -30 77 -35 59 -36 65 -11 65 11 0 28 -13 38 -30 9
-16 20 -30 23 -30 3 0 13 14 22 30 17 30 48 41 48 18 0 -7 -12 -31 -25 -53
-14 -22 -25 -55 -25 -72 l0 -33 53 0 c28 0 47 4 41 8 -18 11 -34 49 -34 77 0
38 50 85 90 85 45 0 69 -16 86 -57 16 -37 11 -67 -14 -95 -14 -17 -12 -18 32
-18 43 0 46 1 36 19 -5 11 -10 49 -10 85 0 59 2 66 20 66 17 0 19 -8 22 -67 3
-63 5 -68 27 -71 32 -5 41 12 41 81 0 50 2 57 20 57 18 0 20 -7 20 -66 0 -36
-5 -74 -10 -85 -10 -17 -7 -19 20 -19 l30 0 0 85 0 85 43 0 c81 0 119 -46 86
-107 -10 -19 -10 -26 6 -43 14 -16 31 -20 82 -20 l63 0 0 65 c0 58 -2 65 -19
65 -24 0 -32 11 -22 28 5 9 28 12 72 10 51 -2 64 -6 67 -20 3 -13 -3 -18 -22
-18 -25 0 -26 -2 -26 -65 l0 -65 35 0 35 0 0 85 0 85 43 0 c82 0 119 -46 86
-107 -11 -21 -10 -26 9 -45 l21 -22 31 70 c40 93 44 99 65 99 12 0 28 -24 54
-82 34 -79 37 -83 69 -83 17 0 32 2 32 5 0 3 -11 31 -24 63 -40 97 -41 104
-15 100 17 -2 28 -16 44 -56 l22 -54 20 54 c15 38 26 54 42 56 28 4 27 -6 -9
-90 -16 -38 -30 -72 -30 -74 0 -2 18 -4 40 -4 l40 0 0 85 0 85 65 0 c58 0 65
-2 65 -20 0 -17 -7 -20 -45 -20 -32 0 -45 -4 -45 -14 0 -10 13 -16 37 -18 27
-2 39 -8 41 -20 3 -15 -4 -18 -37 -18 -30 0 -41 -4 -41 -15 0 -11 12 -15 45
-15 33 0 45 -4 45 -15 0 -8 7 -15 15 -15 12 0 15 16 15 85 0 78 2 85 20 85 18
0 20 -7 20 -70 l0 -70 35 0 c22 0 38 -6 41 -15 14 -37 24 -8 24 70 0 78 2 85
20 85 18 0 20 -7 20 -70 l0 -70 35 0 c22 0 38 -6 41 -15 14 -37 24 -8 24 70 0
78 2 85 20 85 18 0 20 -7 20 -85 0 -78 2 -85 20 -85 18 0 20 7 20 85 0 77 2
85 19 85 12 0 35 -21 58 -52 l38 -53 5 50 c4 40 9 50 24 50 16 0 19 -9 20 -80
1 -80 1 -80 29 -83 l28 -3 -15 30 c-24 45 -20 79 13 112 31 30 61 36 105 19
17 -6 24 -14 20 -25 -5 -11 -15 -13 -44 -9 -33 6 -40 3 -55 -20 -25 -38 -8
-76 35 -76 25 0 30 4 30 25 0 20 5 25 26 25 25 0 26 -2 21 -40 l-5 -40 54 0
54 0 0 85 0 85 65 0 c58 0 65 -2 65 -20 0 -17 -7 -20 -45 -20 -32 0 -45 -4
-45 -14 0 -10 13 -16 37 -18 27 -2 39 -8 41 -20 3 -15 -4 -18 -37 -18 -30 0
-41 -4 -41 -15 0 -11 12 -15 45 -15 25 0 45 -4 45 -10 0 -27 18 -3 44 58 51
120 66 120 116 3 32 -74 60 -105 56 -63 -1 14 6 16 42 14 54 -4 55 13 1 34
-37 16 -40 19 -37 53 2 29 8 38 31 45 33 12 82 -3 82 -24 0 -11 -10 -14 -39
-12 -47 5 -46 -16 3 -33 39 -13 55 -37 47 -71 -6 -24 -5 -25 31 -22 50 4 53
23 14 98 -37 70 -37 70 -12 70 11 0 28 -13 38 -30 9 -16 20 -30 23 -30 3 0 13
14 22 30 17 30 48 41 48 18 0 -7 -12 -31 -25 -53 -14 -22 -25 -54 -25 -72 0
-28 3 -32 33 -36 17 -2 -52 -5 -155 -5 -179 -2 -187 -1 -193 18 -5 15 -15 20
-42 20 -26 0 -36 -5 -40 -20 -5 -19 -14 -20 -268 -20 l-263 0 -38 51 -39 50
-3 -50 -3 -51 -399 0 c-390 0 -399 0 -405 20 -5 15 -15 20 -40 20 -24 0 -38
-6 -45 -20 -8 -16 -21 -20 -59 -20 -41 0 -51 4 -65 25 -9 14 -23 25 -31 25 -9
0 -15 -10 -15 -25 l0 -25 -169 0 -169 0 -16 25 c-9 14 -23 25 -31 25 -9 0 -15
-10 -15 -25 l0 -25 -447 0 -448 0 -20 30 c-23 35 -39 34 -43 -3 -3 -26 -6 -27
-57 -27 -45 0 -55 3 -60 20 -5 15 -15 20 -42 20 -26 0 -36 -5 -40 -20 -5 -17
-14 -20 -59 -20 l-53 0 -3 48 -3 47 -23 -42 c-12 -24 -27 -43 -32 -43 -5 0
-20 19 -32 43 l-23 42 -3 -47 -3 -48 -188 0 -187 0 -19 58 -18 57 -17 -55 -16
-55 -49 -1 c-28 -1 -38 0 -22 3 15 2 27 8 27 13 0 5 -11 39 -25 76 -30 81 -31
86 -3 82 15 -2 26 -15 36 -48z"/>
</g>
</svg>
